<svg xmlns="http://www.w3.org/2000/svg" width="123" height="22" viewBox="0 0 300 100" fill="none"><path d="M44.8556 0.212402C59.4121 0.212402 70.9033 5.22291 78.3036 14.121C79.3074 13.6895 80.3621 13.2595 81.4241 12.8338C83.3395 12.0677 85.3091 11.2779 86.4294 10.6522L86.7702 10.4499L90.049 8.35648L88.3987 11.8852C86.7353 15.4386 86.0264 18.5649 85.8622 21.0622C87.5061 20.6786 88.6483 20.0759 90.2327 19.0019L90.8495 18.5765L93.5734 16.6691L92.5913 19.8302C92.433 20.346 92.263 21.3062 92.0698 22.4176C91.4916 25.7487 90.6054 30.7432 88.2955 34.3344C89.0786 37.1949 89.5899 41.1158 88.8461 46.2411C88.7837 46.6609 88.5236 47.0183 88.143 47.2057C87.9614 47.2958 87.7624 47.3423 87.5692 47.3423C87.5358 47.3423 87.5067 47.3132 87.4733 47.3132C85.9305 77.1802 68.5876 97.6827 44.1685 97.6827C21.2834 97.6827 3.25924 75.0461 2.19874 45.6905C1.84137 45.6164 1.51159 45.4058 1.32419 45.0542L1.28542 44.9783C0.890625 44.1764 -1.93108 37.7148 3.23164 27.1855C3.38418 26.8789 3.64567 26.6407 3.97399 26.5317C3.99724 26.5201 4.33718 26.4126 4.94007 26.2252C10.8077 10.1884 25.386 0.212402 44.8556 0.212402ZM45.0198 43.8121C28.6082 43.8121 6.36957 40.3444 10.1656 58.5778C15.5175 84.2899 29.7326 68.5828 46.1442 68.5828C62.5558 68.5828 73.7681 82.1456 79.8754 58.5778C84.392 41.1275 61.4256 43.8121 45.0198 43.8121ZM4.38948 27.7462C-0.798266 38.3193 2.45442 44.4528 2.45442 44.4528C49.5654 24.9657 87.5634 46.0595 87.5634 46.0595C89.1527 35.1349 84.8569 29.6755 84.8569 29.6755C50.1843 12.3283 4.38948 27.7462 4.38948 27.7462ZM91.5017 19.5063C89.0452 21.2205 87.6723 22.021 84.7102 22.4524C82.2245 22.8098 79.5733 23.7352 77.2649 25.0964C80.1021 26.0959 82.8318 27.2305 85.4307 28.5293C85.5717 28.5975 85.6966 28.6992 85.8055 28.8198C85.8055 28.8198 85.8099 28.83 85.8099 28.8358L85.839 28.8569L85.868 28.8823L85.884 28.9041C85.8898 28.9041 85.8898 28.9099 85.8956 28.9157C86.083 29.1714 87.0142 30.5108 87.8423 32.8599C90.3904 28.2068 90.8669 21.5503 91.5017 19.5063ZM87.3716 11.4087C84.9426 12.9588 77.4523 15.2788 75.154 17.0105C72.9401 18.6724 71.3115 20.8457 70.7159 23.1672C72.4519 23.6146 74.188 24.0577 75.8513 24.6083C78.013 23.173 80.5611 22.1459 83.1151 21.5895C83.1209 21.6069 83.1267 21.6186 83.1325 21.6287L83.3448 21.5784L83.5582 21.527V21.498C83.8865 21.4355 84.2221 21.3745 84.5504 21.328C84.607 21.3222 84.6419 21.3062 84.6986 21.3004C84.8293 18.6041 85.5775 15.2396 87.3716 11.4087Z" fill="#114038"></path><path d="M29.9195 60.0303C29.9195 62.4244 27.9786 60.3543 25.583 60.3543C23.1889 60.3543 21.248 62.4244 21.248 60.0303C21.248 57.6347 23.1889 55.6953 25.583 55.6953C27.9786 55.6953 29.9195 57.6347 29.9195 60.0303Z" fill="#114038"></path><path d="M68.4683 60.0303C68.4683 62.4244 66.5274 60.3543 64.1333 60.3543C61.7377 60.3543 59.7969 62.4244 59.7969 60.0303C59.7969 57.6347 61.7377 55.6953 64.1333 55.6953C66.5274 55.6953 68.4683 57.6347 68.4683 60.0303Z" fill="#114038"></path><path d="M128.426 18.7368H133.89V77.8797H128.426V18.7368ZM187.81 35.21V77.8797H182.426V70.5672C177.551 76.4065 171.979 79.3261 165.711 79.3261C159.444 79.3261 154.153 77.0895 149.841 72.6163C145.528 68.143 143.372 62.8127 143.372 56.6252C143.372 50.4377 145.542 45.1342 149.881 40.7145C154.22 36.2948 159.417 34.085 165.47 34.085C172.435 34.085 178.086 37.0582 182.426 43.0047V35.21H187.81ZM182.747 56.7457C182.747 51.8707 181.113 47.7592 177.845 44.4109C174.578 41.0627 170.573 39.3886 165.832 39.3886C161.091 39.3886 157.087 41.1163 153.819 44.5716C150.551 48.027 148.917 52.1118 148.917 56.8261C148.917 61.5404 150.578 65.6252 153.899 69.0806C157.22 72.5359 161.198 74.2636 165.832 74.2636C170.466 74.2636 174.444 72.6029 177.765 69.2815C181.087 65.96 182.747 61.7815 182.747 56.7457ZM200.265 35.21H205.729V43.0047C210.069 37.0582 215.72 34.085 222.685 34.085C228.685 34.085 233.854 36.2948 238.194 40.7145C242.533 45.1342 244.703 50.4511 244.703 56.6654C244.703 62.8797 242.56 68.21 238.274 72.6565C233.988 77.1029 228.845 79.3261 222.845 79.3261C216.31 79.3261 210.604 76.4065 205.729 70.5672V93.469H200.265V35.21ZM239.238 56.7457C239.238 51.9779 237.591 47.8931 234.296 44.4913C231.002 41.0895 226.97 39.3886 222.203 39.3886C217.435 39.3886 213.43 41.0627 210.189 44.4109C206.948 47.7592 205.328 51.8975 205.328 56.8261C205.328 61.7547 206.988 65.893 210.31 69.2413C213.631 72.5895 217.609 74.2636 222.243 74.2636C226.877 74.2636 230.868 72.5627 234.216 69.1609C237.564 65.7591 239.238 61.6208 239.238 56.7457ZM297.497 35.21V77.8797H292.113V70.5672C287.238 76.4065 281.667 79.3261 275.399 79.3261C269.131 79.3261 263.841 77.0895 259.528 72.6163C255.216 68.143 253.06 62.8127 253.06 56.6252C253.06 50.4377 255.229 45.1342 259.569 40.7145C263.908 36.2948 269.104 34.085 275.158 34.085C282.122 34.085 287.774 37.0582 292.113 43.0047V35.21H297.497ZM292.435 56.7457C292.435 51.8707 290.801 47.7592 287.533 44.4109C284.265 41.0627 280.261 39.3886 275.52 39.3886C270.778 39.3886 266.774 41.1163 263.506 44.5716C260.238 48.027 258.604 52.1118 258.604 56.8261C258.604 61.5404 260.265 65.6252 263.587 69.0806C266.908 72.5359 270.886 74.2636 275.52 74.2636C280.153 74.2636 284.131 72.6029 287.453 69.2815C290.774 65.96 292.435 61.7815 292.435 56.7457Z" fill="#114038"></path></svg>