<svg xmlns="http://www.w3.org/2000/svg" width="123" height="22" viewBox="0 0 300 48" fill="none"><g clip-path="url(#clip0_528_1277)"><path d="M1.2766 22.3402C2.34043 16.8083 7.23404 12.9785 14.0426 12.9785C21.9149 12.9785 28.0851 16.3828 28.0851 27.0211V46.8083H21.2766L20.4255 42.553C18.0851 45.5317 14.8936 47.4466 10.2128 47.4466C4.46809 47.4466 0 43.8296 0 37.2338C0 30.6381 5.95745 26.3828 14.2553 26.3828H19.7872V24.8934C19.7872 21.0636 17.0213 19.9998 13.8298 19.9998C11.4894 19.9998 9.14894 20.8509 8.08511 23.8296L1.2766 22.3402ZM12.1277 40.4253C15.9574 40.4253 19.7872 37.8721 19.7872 33.6168V32.9785H14.4681C10.8511 32.7657 8.7234 34.2551 8.7234 37.2338C8.7234 38.7232 10 40.4253 12.1277 40.4253Z" fill="#114038"></path><path d="M161.702 22.3402C162.766 16.8083 167.66 12.9785 174.468 12.9785C182.341 12.9785 188.511 16.3828 188.511 27.0211V46.8083H181.702L180.851 42.553C178.511 45.5317 175.319 47.4466 170.639 47.4466C164.894 47.4466 160.426 43.8296 160.426 37.2338C160.426 30.6381 166.383 26.3828 174.681 26.3828H180.213V24.8934C180.213 21.0636 177.447 19.9998 174.256 19.9998C171.915 19.9998 169.575 20.8509 168.511 23.8296L161.702 22.3402ZM172.553 40.4253C176.383 40.4253 180.213 37.8721 180.213 33.6168V32.9785H174.681C171.064 32.9785 168.936 34.2551 168.936 37.2338C169.149 38.7232 170.426 40.4253 172.553 40.4253Z" fill="#114038"></path><path d="M195.957 47.0211V13.404H204.255V18.936C206.595 14.8934 210.425 12.9785 214.042 12.9785C215.531 12.9785 216.808 13.1913 218.085 13.6168L216.595 21.2764C215.532 20.6381 214.468 20.2126 213.191 20.2126C208.297 20.2126 204.255 24.2551 204.255 34.8934V46.8083L195.957 47.0211Z" fill="#114038"></path><path d="M235.745 12.9787C239.149 12.9787 242.341 14.6809 243.83 16.5957V0H252.128V47.0213H243.83V43.617C242.766 45.3192 239.788 47.6596 235.745 47.6596C225.745 47.6596 220.639 40.6383 220.639 30.4255C220.639 20.2128 225.745 12.9787 235.745 12.9787ZM237.022 40.4255C241.277 40.4255 244.681 36.8085 244.681 30.2128C244.681 23.617 241.277 20 237.022 20C232.766 20 229.362 23.617 229.362 30.2128C229.362 36.8085 232.766 40.4255 237.022 40.4255Z" fill="#114038"></path><path d="M281.914 18.2979L277.02 22.766C275.531 20.6383 273.191 19.7873 271.488 19.7873C269.786 19.7873 268.297 20.8511 268.297 22.5532C268.297 24.0426 269.574 25.1064 271.488 25.7447C276.169 27.4468 283.616 28.9362 283.616 35.9575C283.616 42.1277 278.935 47.0213 271.701 47.0213C264.68 47.0213 259.999 42.1277 258.51 38.0851L265.106 34.4681C266.382 37.6596 268.51 40 271.914 40C274.467 40 276.169 38.7234 276.169 36.383C276.169 33.6171 271.914 32.9788 267.871 31.2766C264.254 29.7873 261.063 27.4468 261.063 22.3405C261.063 17.2341 265.318 12.5532 271.701 12.5532C275.957 12.766 279.999 15.1064 281.914 18.2979Z" fill="#114038"></path><path d="M110.426 13.4043L104.469 36.5958L98.724 13.4043H91.0644L85.5325 36.5958L80.8516 23.1915L80.2133 24.6809L77.6602 33.4043L81.9155 47.0213H89.1495L94.8942 25.3192L100.639 47.0213H108.086L118.724 13.4043H110.426Z" fill="#114038"></path><path d="M150.213 13.4043L144.256 36.5958L138.511 13.4043H130.851L125.319 36.5958L120.639 23.1915L120 24.6809L117.234 33.4043L121.702 47.0213H128.937L134.681 25.3192L140.426 47.0213H147.66L158.511 13.4043H150.213Z" fill="#114038"></path><path d="M78.9352 13.4043L68.2969 46.8086H61.0629L55.3182 25.3192L49.5735 47.0213H42.3395L31.7012 13.6171H39.999L45.9565 36.5958L51.7012 13.6171H59.3607L65.1054 36.5958L71.0629 13.6171L78.9352 13.4043Z" fill="#114038"></path><path d="M294.467 36.1704C297.659 36.1704 299.999 38.5108 299.999 41.7023C299.999 44.8938 297.659 47.2342 294.467 47.2342C291.276 47.2342 288.936 44.8938 288.936 41.7023C288.936 38.5108 291.276 36.1704 294.467 36.1704Z" fill="#114038"></path></g><defs><clipPath id="clip0_528_1277"><rect width="300" height="47.4468" fill="white"></rect></clipPath></defs></svg>