<svg xmlns="http://www.w3.org/2000/svg" width="123" height="22" viewBox="0 0 300 71" fill="none"><g clip-path="url(#clip0_528_1306)"><path d="M70.176 35.088C70.176 54.4656 54.4656 70.176 35.088 70.176C15.708 70.176 0 54.4656 0 35.088C0 15.708 15.7092 0 35.088 0C54.4656 0 70.176 15.7092 70.176 35.088Z" fill="#114038"></path><path d="M39.765 35.0879H29.8242V24.5615H39.765C40.4562 24.5615 41.1406 24.6977 41.7792 24.9622C42.4177 25.2267 42.998 25.6144 43.4867 26.1031C43.9754 26.5918 44.3631 27.172 44.6276 27.8106C44.8921 28.4492 45.0282 29.1336 45.0282 29.8247C45.0282 30.5159 44.8921 31.2003 44.6276 31.8389C44.3631 32.4774 43.9754 33.0577 43.4867 33.5464C42.998 34.0351 42.4177 34.4228 41.7792 34.6873C41.1406 34.9518 40.4562 35.0879 39.765 35.0879ZM39.765 17.5439H22.8066V52.6319H29.8242V42.1055H39.765C46.5474 42.1055 52.0458 36.6071 52.0458 29.8247C52.0458 23.0423 46.5474 17.5439 39.765 17.5439Z" fill="white"></path><path d="M107.037 30.7992C107.037 28.8684 105.554 27.6984 103.627 27.6984H98.4608V33.864H103.628C105.555 33.864 107.037 32.694 107.037 30.7992ZM93.5684 46.7832V23.3916H104.314C109.311 23.3916 112.03 26.7684 112.03 30.7992C112.03 34.7952 109.276 38.1708 104.314 38.1708H98.4608V46.7832H93.5684ZM115.009 46.7832V29.73H119.38V31.9692C120.586 30.522 122.62 29.3172 124.688 29.3172V33.588C124.376 33.5196 123.998 33.486 123.482 33.486C122.035 33.486 120.104 34.3116 119.38 35.382V46.7832H115.009ZM139.405 38.0328C139.405 35.4492 137.886 33.21 135.13 33.21C132.408 33.21 130.894 35.4492 130.894 38.034C130.894 40.6512 132.408 42.8904 135.13 42.8904C137.886 42.8904 139.405 40.6512 139.405 38.0328ZM126.345 38.0328C126.345 33.3144 129.652 29.3172 135.13 29.3172C140.643 29.3172 143.95 33.3132 143.95 38.0328C143.95 42.7524 140.643 46.7832 135.13 46.7832C129.652 46.7832 126.345 42.7524 126.345 38.0328ZM158.672 40.9956V35.1048C157.948 34.0008 156.364 33.21 154.916 33.21C152.403 33.21 150.68 35.1732 150.68 38.034C150.68 40.926 152.403 42.8904 154.916 42.8904C156.364 42.8904 157.948 42.0996 158.672 40.9956ZM158.672 46.7832V44.2344C157.362 45.8868 155.572 46.7832 153.538 46.7832C149.371 46.7832 146.167 43.6152 146.167 38.0328C146.167 32.6256 149.302 29.3172 153.538 29.3172C155.502 29.3172 157.362 30.1452 158.672 31.866V23.3916H163.081V46.7832H158.672ZM178.664 46.7832V44.268C177.529 45.5088 175.531 46.7832 172.808 46.7832C169.158 46.7832 167.436 44.7852 167.436 41.5464V29.73H171.808V39.8244C171.808 42.1332 173.014 42.8904 174.874 42.8904C176.562 42.8904 177.907 41.9604 178.664 40.9944V29.73H183.039V46.7832H178.664ZM186.325 38.0328C186.325 32.9352 190.045 29.3172 195.145 29.3172C198.555 29.3172 200.622 30.7992 201.724 32.3148L198.864 35.0004C198.073 33.8292 196.867 33.21 195.351 33.21C192.698 33.21 190.839 35.1396 190.839 38.034C190.839 40.926 192.698 42.8904 195.351 42.8904C196.867 42.8904 198.073 42.2016 198.864 41.064L201.724 43.752C200.622 45.2676 198.555 46.7832 195.145 46.7832C190.045 46.7832 186.325 43.1664 186.325 38.0328ZM205.486 42.2016V33.5544H202.731V29.73H205.486V25.182H209.863V29.73H213.236V33.5544H209.863V41.0304C209.863 42.0984 210.411 42.8904 211.377 42.8904C212.03 42.8904 212.654 42.6492 212.892 42.3744L213.824 45.714C213.17 46.302 211.998 46.7832 210.171 46.7832C207.105 46.7832 205.486 45.1992 205.486 42.2016ZM241.261 46.7832V36.6888H230.408V46.7832H225.519V23.3916H230.408V32.4168H241.261V23.3928H246.187V46.7832H241.261ZM261.843 46.7832V44.268C260.707 45.5088 258.709 46.7832 255.987 46.7832C252.336 46.7832 250.614 44.7852 250.614 41.5464V29.73H254.986V39.8244C254.986 42.1332 256.192 42.8904 258.054 42.8904C259.741 42.8904 261.086 41.9604 261.843 40.9944V29.73H266.218V46.7832H261.843ZM281.797 46.7832V36.312C281.797 34.0032 280.594 33.2112 278.732 33.2112C277.01 33.2112 275.702 34.176 274.942 35.1408V46.7844H270.57V29.73H274.942V31.866C276.012 30.6264 278.078 29.3172 280.765 29.3172C284.451 29.3172 286.208 31.3836 286.208 34.6212V46.7832H281.798H281.797ZM291.421 42.2016V33.5544H288.668V29.73H291.422V25.182H295.798V29.73H299.173V33.5544H295.798V41.0304C295.798 42.0984 296.348 42.8904 297.313 42.8904C297.967 42.8904 298.59 42.6492 298.83 42.3744L299.758 45.714C299.106 46.302 297.932 46.7832 296.107 46.7832C293.041 46.7832 291.421 45.1992 291.421 42.2016Z" fill="#114038"></path></g><defs><clipPath id="clip0_528_1306"><rect width="300" height="70.8" fill="white"></rect></clipPath></defs></svg>