<svg xmlns="http://www.w3.org/2000/svg" width="123" height="22" viewBox="0 0 1234 229" fill="none"><g clip-path="url(#clip0_528_1287)"><path d="M106 0C116.5 0 126.2 0.8 135.1 3.2C144 4.8 151.3 8.1 157.8 12.1C164.3 16.1 169.1 21.8 172.4 29.1C175.6 36.4 177.3 45.3 177.3 55C177.3 66.3 174.9 76 169.2 83.3C164.3 90.6 156.3 97.1 146.5 101.9C160.3 105.9 170.8 113.2 177.2 122.9C183.6 132.6 187.7 144.7 187.7 158.5C187.7 169.8 185.3 179.5 181.2 187.6C177.2 195.7 170.7 203 163.4 207.8C156.1 212.7 147.2 216.7 137.5 219.1C127.8 221.5 118.1 223.1 108.4 223.1L0 223.3V0H106ZM99.5 90.6C108.4 90.6 115.7 88.2 121.3 84.1C126.9 80 129.4 72.8 129.4 63.9C129.4 59 128.6 54.2 127 51C125.4 47.8 123 45.3 119.7 42.9C116.5 41.3 113.2 39.7 109.2 38.9C105.2 38.1 101.1 38.1 96.3 38.1H49.4V90.7C49.4 90.6 99.5 90.6 99.5 90.6ZM101.9 186.1C106.8 186.1 111.6 185.3 115.7 184.5C119.7 183.7 123.8 182.1 127 179.6C130.2 177.1 132.7 174.7 135.1 170.7C136.7 166.7 138.3 161.8 138.3 156.1C138.3 144.8 135.1 136.7 128.6 131C122.1 126.1 113.2 123.7 102.7 123.7H49.4V186H101.9V186.1Z" fill="#114038"></path><path d="M258.101 185.3C264.601 191.8 274.301 195 287.201 195C296.101 195 304.201 192.6 310.701 188.5C317.201 183.6 321.201 178.8 322.801 173.9H362.401C355.901 193.3 346.201 207.1 333.301 216C320.401 224.1 305.001 228.9 286.401 228.9C273.501 228.9 262.101 226.5 251.601 222.4C241.101 218.4 233.001 212.7 225.701 204.6C218.401 197.3 212.801 188.4 209.501 177.9C205.501 167.4 203.801 156.1 203.801 143.1C203.801 131 205.401 119.6 209.501 109.1C213.601 98.5999 219.201 89.6999 226.501 81.5999C233.801 74.2999 242.701 67.7999 252.401 63.7999C262.901 59.7999 273.401 57.2999 286.401 57.2999C300.201 57.2999 312.301 59.6999 322.801 65.3999C333.301 71.0999 341.401 77.4999 347.901 87.1999C354.401 96.0999 359.201 106.6 362.501 117.9C364.101 129.2 364.901 140.6 364.101 153.5H246.801C246.801 166.7 251.601 178.8 258.101 185.3ZM309.101 100.3C303.401 94.5999 294.501 91.3999 284.001 91.3999C276.701 91.3999 271.101 92.9999 266.201 95.3999C261.301 97.7999 258.101 101.1 254.901 104.3C251.701 107.5 250.001 111.6 249.201 115.6C248.401 119.6 247.601 122.9 247.601 126.1H320.401C318.801 114.1 314.701 106 309.101 100.3ZM237.901 15.3999H328.501V37.1999H237.901V15.3999Z" fill="#114038"></path><path d="M427.199 0V84.1H427.999C433.699 74.4 440.899 67.9 449.799 63.9C458.699 59.9 466.799 57.4 475.699 57.4C487.799 57.4 497.499 59 504.799 62.3C512.099 65.5 518.599 70.4 522.599 76.1C526.599 81.8 529.899 89 531.499 97.1C533.099 105.2 533.899 114.1 533.899 124.6V224.1H489.399V132.7C489.399 118.9 486.999 109.2 482.899 102.8C478.799 96.4 471.699 93 461.199 93C449.099 93 440.199 97 435.299 103.5C429.599 110.8 427.199 122.9 427.199 139.1V224.1H382.699V0H427.199Z" fill="#114038"></path><path d="M566.4 85.8C571.3 78.5 576.9 73.7 584.2 68.8C591.5 64.8 599.6 61.5 608.5 59.9C617.4 58.3 626.3 57.5 635.2 57.5C643.3 57.5 651.4 58.3 660.3 59.1C668.4 59.9 676.5 62.3 683 65.6C690.3 68.8 695.1 73.7 700 79.4C704 85.1 706.5 93.2 706.5 102.9V187.9C706.5 195.2 707.3 202.5 708.1 208.9C708.9 215.4 711.3 221 713.8 224.3H668.5C666.9 222.7 666.1 219.4 665.3 217C664.5 214.6 664.5 211.3 664.5 208.9C657.2 216.2 649.1 221 639.4 224.3C629.7 227.5 620 228.3 610.3 228.3C602.2 228.3 595.7 227.5 588.5 225.1C582 223.5 576.4 220.2 570.7 216.2C565.8 212.2 561.8 207.3 558.6 200.8C556.2 194.3 554.6 187.9 554.6 179C554.6 170.1 556.2 162 559.5 156.3C562.7 150.6 566.8 145.8 571.6 141.7C576.5 138.5 582.9 135.2 589.4 133.6C595.9 132 602.3 130.4 609.6 129.6C616.1 128.8 622.5 128 629 127.2C635.5 126.4 641.1 125.6 646 124.8C650.9 123.2 654.9 121.6 658.1 119.1C661.3 116.7 662.1 113.4 662.1 108.6C662.1 103.7 661.3 99.7 659.7 97.3C658.1 94.9 655.7 92.4 653.2 90.8C650.8 89.2 647.5 88.4 644.3 87.6C641.1 86.8 637 86.8 633 86.8C624.1 86.8 617.6 88.4 612.8 92.5C607.9 96.5 604.7 103 603.9 111.1H559.4C559.1 101.1 562.3 92.2 566.4 85.8ZM654.6 148.9C652.2 149.7 648.9 150.5 645.7 151.3C642.5 152.1 639.2 152.1 635.2 152.9C632 153.7 627.9 153.7 624.7 154.5C621.5 155.3 618.2 156.1 615 156.9C611.8 157.7 608.5 159.3 606.9 160.9C604.5 162.5 602.9 164.9 601.2 167.4C598.8 170.6 598.8 173.9 598.8 177.9C598.8 181.9 599.6 185.2 601.2 187.6C602.8 190 604.4 192.5 606.9 194.1C609.3 195.7 612.6 196.5 615.8 197.3C619 198.1 622.3 198.1 626.3 198.1C635.2 198.1 641.7 196.5 646.5 194.1C651.4 190.9 654.6 187.6 657 183.6C659.4 179.6 661 175.5 661 171.5C661.8 167.5 661.8 164.2 661.8 161.8V144.8C659.4 146.4 657 148.1 654.6 148.9Z" fill="#114038"></path><path d="M773.5 61.5V84.2H774.3C780 74.5 787.2 68 796.1 64C805 60 814.7 57.5 823.6 57.5C835.7 57.5 845.4 59.1 852.7 62.4C860.8 65.6 866.5 70.5 870.5 76.2C874.5 81.9 877.8 89.1 880.2 97.2C881.8 105.3 882.6 114.2 882.6 124.7V224.2H838.1V132.8C838.1 119 835.7 109.3 831.6 102.9C827.6 96.4 820.3 92.4 808.9 92.4C796.8 92.4 787.9 97.3 782.2 104.5C776.5 111.8 774.1 123.9 774.1 140.1V225.1H729.6V61.5C729.8 61.5 773.5 61.5 773.5 61.5Z" fill="#114038"></path><path d="M982.299 90.5999C974.999 90.5999 969.399 92.1999 964.499 95.4999C959.599 98.6999 955.599 102.8 952.399 108.4C949.199 113.3 947.499 118.9 945.899 125.4C944.299 131.9 944.299 137.5 944.299 144C944.299 149.7 945.099 156.1 945.899 161.8C947.499 168.3 949.099 173.1 952.399 178C955.599 182.9 958.899 186.9 963.699 190.1C968.599 193.3 974.199 195 981.499 195C991.999 195 1000.1 191.8 1006.6 186.1C1012.3 180.4 1016.3 172.3 1017.1 161.8H1060C1056.8 183.6 1048.7 199.8 1034.9 211.2C1021.1 222.5 1003.3 228.2 981.499 228.2C969.399 228.2 957.999 225.8 948.299 221.7C937.799 217.7 929.699 212 922.399 204.7C915.099 197.4 909.499 188.5 905.399 178.8C901.399 168.3 899.699 157.8 899.699 145.6C899.699 132.7 901.299 121.3 905.399 110.8C909.399 100.3 914.299 90.5999 921.599 82.4999C928.899 74.3999 937.799 68.6999 947.499 63.8999C957.999 59.8999 969.299 57.3999 982.299 57.3999C991.999 57.3999 1000.9 58.9999 1009.8 61.3999C1018.7 63.7999 1026.8 67.8999 1033.3 72.6999C1040.6 77.5999 1046.2 83.9999 1050.3 92.0999C1054.3 99.3999 1056.8 109.1 1057.6 119.6H1013.9C1012.2 100.3 1001.7 90.5999 982.299 90.5999Z" fill="#114038"></path><path d="M1127.1 185.3C1133.6 191.8 1144.1 195 1156.2 195C1165.1 195 1173.2 192.6 1179.7 188.5C1186.2 183.6 1190.2 178.8 1191.8 173.9H1230.6C1224.1 193.3 1214.4 207.1 1201.5 216C1188.6 224.1 1173.2 228.9 1154.6 228.9C1141.7 228.9 1130.3 226.5 1119.8 222.4C1109.3 218.4 1101.2 212.7 1093.9 204.6C1086.6 197.3 1081 188.4 1077.7 177.9C1073.7 167.4 1072 156.1 1072 143.1C1072 131 1073.6 119.6 1077.7 109.1C1081.7 98.5998 1087.4 89.6998 1094.7 81.5998C1102 74.2998 1110.9 67.7998 1120.6 63.7998C1131.1 59.7998 1142.4 57.2998 1154.6 57.2998C1168.4 57.2998 1180.5 59.6998 1190.2 65.3998C1200.7 71.0998 1208.8 77.4998 1215.3 87.1998C1221.8 96.0998 1226.6 106.6 1229.9 117.9C1233.1 129.2 1233.9 141.4 1233.1 154.3H1115.8C1115.8 166.7 1120.6 178.8 1127.1 185.3ZM1178.9 100.3C1173.2 94.5998 1164.3 91.3998 1153.8 91.3998C1146.5 91.3998 1140.9 92.9998 1136 95.3998C1131.1 97.7998 1127.1 101.1 1124.7 104.3C1122.3 107.5 1119.8 111.6 1119 115.6C1118.2 119.6 1117.4 122.9 1117.4 126.1H1190.2C1187.8 114.1 1183.7 106 1178.9 100.3Z" fill="#114038"></path></g><defs><clipPath id="clip0_528_1287"><rect width="1233.4" height="229" fill="white"></rect></clipPath></defs></svg>