<svg xmlns="http://www.w3.org/2000/svg" width="123" height="22" viewBox="0 0 410 100" fill="none"><g clip-path="url(#clip0_528_1295)"><path d="M404.98 69.2501C403.711 68.3301 402.705 68.2001 401.874 69.9501C387.615 100.785 363.602 85.3901 366.008 86.7451C371.344 84.2951 385.341 73.0981 383.241 57.5711C381.973 48.0801 373.837 43.8811 365.177 45.4111C350.087 48.0361 344.576 64.3071 347.375 78.6971C347.856 81.1901 348.731 83.2021 349.65 85.2141C332.635 99.0791 325.856 72.8361 325.068 69.6871C325.025 69.5121 338.234 58.5331 341.908 32.3341C345.757 4.90908 337.009 -0.120917 328.043 0.0540827C311.466 0.360083 307.004 34.9581 312.996 63.7821C312.515 63.9131 310.153 65.2251 306.392 65.3571C303.68 56.8271 292.089 49.3481 289.071 52.2351C281.504 59.4521 290.908 73.5351 297.557 74.6291C293.576 99.1671 268.645 93.0871 273.281 62.3391C281.373 47.2921 287.584 24.8541 286.447 11.3391C286.053 6.57008 282.51 0.142083 274.506 0.448083C259.11 1.06008 257.448 35.6581 259.241 60.2391C259.154 59.6271 258.279 63.2131 251.98 65.0071C250.493 56.7401 237.153 48.3861 234.004 52.4101C228.143 59.8901 238.334 73.2301 243.145 74.1481C239.165 98.6861 214.234 92.6061 218.87 61.8581C227.006 46.8111 233.173 24.4171 232.079 10.9021C231.686 6.13408 228.143 -0.295917 220.138 0.0110827C204.742 0.623083 203.08 35.2211 204.874 59.8011C204.786 59.1891 203.911 62.9071 197.35 64.6571C197.132 53.8971 183.748 48.9981 180.511 52.4101C174.781 58.5331 181.823 71.0861 188.34 74.1481C184.36 98.6861 159.429 92.6061 164.065 61.8581C172.157 46.8111 178.368 24.3731 177.231 10.8581C176.881 6.13408 173.338 -0.295917 165.333 0.0110827C149.937 0.623083 148.713 36.9701 150.506 61.5511C145.432 83.2901 128.418 110.408 130.648 56.0411C130.867 52.2351 131.086 50.7911 129.205 49.3481C127.762 48.2551 124.525 48.7791 122.775 48.8231C120.632 48.9111 120.064 50.1791 119.626 52.0601C118.533 56.9591 118.314 61.7261 118.139 68.2431C118.052 71.3051 117.789 72.7051 116.608 76.8601C115.427 81.0151 108.779 88.5821 105.105 87.3141C100.031 85.5641 101.693 71.2611 102.655 61.4201C103.443 53.6351 100.906 50.1801 94.433 48.9101C90.627 48.1241 88.309 48.2551 84.373 46.9861C80.611 45.8061 79.78 38.7201 71.82 41.0821C67.446 42.3941 70.245 51.6221 69.195 58.4901C64.034 92.2121 53.318 93.1301 48.332 76.7721C70.726 21.8361 54.762 0.185083 45.445 0.185083C35.735 0.185083 24.625 6.87809 29.305 49.7421C27.031 49.0861 26.331 48.7361 23.794 48.7361C9.666 48.6921 0 60.1521 0 74.2791C0 88.4071 9.666 99.8671 23.838 99.8671C32.192 99.8671 38.053 96.0611 42.514 90.2001C45.401 94.3561 48.944 99.9541 55.417 99.6921C74.662 98.9481 80.261 59.4521 80.917 57.2221C82.973 57.5271 84.941 58.1401 86.822 58.4461C89.972 58.9271 90.234 60.1961 90.146 63.3451C89.316 90.2001 94.258 99.6051 105.499 99.6051C111.753 99.6051 117.352 93.4371 121.201 89.0631C124.088 95.0121 128.636 99.4291 134.804 99.6041C149.675 99.9541 155.405 76.2481 154.88 79.3541C154.486 81.8021 159.691 99.4291 175.044 99.5171C194.026 99.6041 197.569 78.7411 197.963 75.2421C198.05 74.6291 198.007 74.5421 197.963 75.2421V75.4601C203.999 74.3231 207.104 71.1301 207.104 71.1301C207.104 71.1301 211.959 99.8671 229.849 99.5601C248.438 99.2101 251.98 80.3601 252.418 76.6851C252.505 75.8981 252.462 75.8101 252.418 76.6851V76.7721C259.591 74.1481 261.472 71.5681 261.472 71.5681C261.472 71.5681 265.321 99.7361 284.216 99.9981C301.056 100.217 307.31 82.9401 307.354 75.7231C310.197 75.7661 315.446 74.0171 315.315 73.9301C315.315 73.9301 321.482 98.5551 338.715 99.8231C346.807 100.435 352.886 95.2741 356.342 92.9131C364.477 99.5171 391.552 107.915 408.654 78.9161C411.103 74.8041 405.898 69.8631 404.98 69.2501ZM23.138 90.2871C14.871 90.2871 9.578 82.6331 9.578 74.4101C9.578 66.1871 14.434 58.5321 22.701 58.5321C26.418 58.5321 28.474 58.9261 31.405 61.4621C31.929 63.5191 33.417 68.2861 34.16 70.4731C35.122 73.3601 36.303 75.8531 37.44 78.5211C35.735 85.4311 30.311 90.2871 23.138 90.2871ZM43.258 61.6821C42.908 61.1131 42.995 61.4621 42.602 60.9381C41.115 56.8271 38.184 47.6411 37.834 37.1881C37.441 25.3781 39.409 11.5131 45.226 11.5131C49.163 11.5131 53.362 39.5931 43.258 61.6821ZM159.647 49.3911C158.729 42.3931 158.685 11.1191 166.165 11.9941C170.32 13.6561 163.54 43.1361 159.647 49.3911ZM214.452 49.3911C213.534 42.3931 213.49 11.1191 220.97 11.9941C225.125 13.6561 218.345 43.1361 214.452 49.3911ZM268.82 49.8281C267.901 42.8301 267.858 11.5571 275.337 12.4311C279.492 14.0501 272.713 43.5741 268.82 49.8281ZM328.83 10.1131C335.697 9.41308 335.391 39.3751 321.657 58.2701C319.863 51.4471 317.152 12.4751 328.83 10.1131ZM357.698 74.6281C355.511 63.4751 361.197 56.1701 367.058 55.3831C369.114 55.0771 372.088 56.3891 372.656 58.8831C373.619 63.5631 372.525 70.5171 359.36 79.3081C359.404 79.3521 358.179 77.0781 357.698 74.6281ZM125.05 40.2501C129.73 40.2501 133.535 36.4451 133.535 31.7651C133.535 27.0851 129.73 23.2801 125.05 23.2801C120.37 23.2801 116.564 27.0851 116.564 31.7651C116.564 36.4451 120.37 40.2501 125.05 40.2501Z" fill="#114038"></path></g><defs><clipPath id="clip0_528_1295"><rect width="410" height="100" fill="white"></rect></clipPath></defs></svg>