<?xml version="1.0" encoding="UTF-8"?>
<svg xmlns="http://www.w3.org/2000/svg" width="90" height="90" viewBox="0 0 90 90" fill="none"><circle cx="45" cy="45" r="45" fill="#F7F4EE"></circle><g clip-path="url(#clip0_1565_79032)"><path d="M44.9998 83.2008C66.6494 83.2008 84.1998 65.6503 84.1998 44.0008C84.1998 22.3512 66.6494 4.80078 44.9998 4.80078C23.3502 4.80078 5.7998 22.3512 5.7998 44.0008C5.7998 65.6503 23.3502 83.2008 44.9998 83.2008Z" stroke="#114038" stroke-width="1.2"></path><path d="M31.4775 30.4764C31.4775 28.6831 32.1899 26.9632 33.4579 25.6952C34.7259 24.4272 36.4458 23.7148 38.239 23.7148H45.0006V37.2379H38.239C36.4458 37.2379 34.7259 36.5255 33.4579 35.2575C32.1899 33.9895 31.4775 32.2696 31.4775 30.4764Z" stroke="#114038" stroke-width="2.89779" stroke-linecap="round" stroke-linejoin="round"></path><path d="M45 23.7148H51.7615C52.6495 23.7148 53.5287 23.8898 54.3491 24.2295C55.1693 24.5694 55.9148 25.0674 56.5427 25.6952C57.1705 26.3231 57.6685 27.0686 58.0084 27.8888C58.3481 28.7092 58.5231 29.5884 58.5231 30.4764C58.5231 31.3643 58.3481 32.2435 58.0084 33.0639C57.6685 33.8843 57.1705 34.6296 56.5427 35.2575C55.9148 35.8854 55.1693 36.3834 54.3491 36.7232C53.5287 37.063 52.6495 37.2379 51.7615 37.2379H45V23.7148Z" stroke="#114038" stroke-width="2.89779" stroke-linecap="round" stroke-linejoin="round"></path><path d="M45 43.9999C45 43.1119 45.1749 42.2327 45.5147 41.4123C45.8545 40.592 46.3525 39.8465 46.9804 39.2187C47.6083 38.5908 48.3536 38.0928 49.174 37.7529C49.9944 37.4132 50.8736 37.2383 51.7615 37.2383C52.6495 37.2383 53.5287 37.4132 54.3491 37.7529C55.1693 38.0928 55.9148 38.5908 56.5427 39.2187C57.1705 39.8465 57.6685 40.592 58.0084 41.4123C58.3481 42.2327 58.5231 43.1119 58.5231 43.9999C58.5231 44.8877 58.3481 45.7669 58.0084 46.5873C57.6685 47.4077 57.1705 48.1531 56.5427 48.781C55.9148 49.4088 55.1693 49.9068 54.3491 50.2467C53.5287 50.5864 52.6495 50.7613 51.7615 50.7613C50.8736 50.7613 49.9944 50.5864 49.174 50.2467C48.3536 49.9068 47.6083 49.4088 46.9804 48.781C46.3525 48.1531 45.8545 47.4077 45.5147 46.5873C45.1749 45.7669 45 44.8877 45 43.9999Z" stroke="#114038" stroke-width="2.89779" stroke-linecap="round" stroke-linejoin="round"></path><path d="M31.4775 57.5232C31.4775 55.73 32.1899 54.0101 33.4579 52.7421C34.7259 51.4741 36.4458 50.7617 38.239 50.7617H45.0006V57.5232C45.0006 59.3165 44.2882 61.0362 43.0202 62.3044C41.7522 63.5724 40.0323 64.2848 38.239 64.2848C36.4458 64.2848 34.7259 63.5724 33.4579 62.3044C32.1899 61.0362 31.4775 59.3165 31.4775 57.5232Z" stroke="#114038" stroke-width="2.89779" stroke-linecap="round" stroke-linejoin="round"></path><path d="M31.4775 43.9999C31.4775 42.2065 32.1899 40.4867 33.4579 39.2187C34.7259 37.9507 36.4458 37.2383 38.239 37.2383H45.0006V50.7613H38.239C36.4458 50.7613 34.7259 50.049 33.4579 48.781C32.1899 47.513 31.4775 45.7931 31.4775 43.9999Z" stroke="#114038" stroke-width="2.89779" stroke-linecap="round" stroke-linejoin="round"></path></g><defs><clipPath id="clip0_1565_79032"><rect width="80" height="80" fill="white" transform="translate(5 4)"></rect></clipPath></defs></svg>