<?xml version="1.0" encoding="UTF-8"?>

<svg xmlns="http://www.w3.org/2000/svg" width="90" height="90" viewBox="0 0 90 90" fill="none"><circle cx="45" cy="45" r="45" fill="#F7F4EE"></circle><g clip-path="url(#clip0_1565_79036)"><path d="M50.0242 63.6311L62.333 61.0293C62.333 61.0293 57.8913 31.6744 57.8554 31.4794C57.8247 31.286 57.6609 31.1594 57.4955 31.1594C57.3301 31.1594 54.2051 30.9327 54.2051 30.9327C54.2051 30.9327 52.0302 28.8093 51.7505 28.5809C51.6737 28.5193 51.6226 28.486 51.5441 28.4577L49.985 63.6311H50.0242ZM43.8375 42.5077C43.8375 42.5077 42.4558 41.8009 40.8114 41.8009C38.3433 41.8009 38.2461 43.3111 38.2461 43.7027C38.2461 45.756 43.7726 46.561 43.7726 51.4176C43.7726 55.2427 41.3163 57.6843 37.9629 57.6843C33.9475 57.6843 31.9245 55.2427 31.9245 55.2427L33.0263 51.766C33.0263 51.766 35.1501 53.5427 36.9155 53.5427C38.0669 53.5427 38.5786 52.6343 38.5786 51.9894C38.5786 49.2911 34.0515 49.166 34.0515 44.7244C33.9935 40.996 36.7313 37.3644 42.2853 37.3644C44.4294 37.3644 45.4835 37.966 45.4835 37.966L43.8715 42.4909L43.8375 42.5077ZM42.9163 25.0493C43.1483 25.0493 43.3786 25.1127 43.6073 25.2743C41.9287 26.0493 40.0865 28.006 39.3291 31.9276C38.2102 32.2827 37.1237 32.6027 36.107 32.8909C36.9923 29.916 39.1313 25.066 42.9163 25.066V25.0493ZM45.023 29.9644V30.1893C43.7369 30.576 42.3227 30.996 40.9394 31.416C41.7343 28.4544 43.2131 27.0077 44.4959 26.4644C44.8251 27.2993 45.023 28.4243 45.023 29.9644ZM45.9423 26.2409C47.1262 26.3643 47.8886 27.686 48.3799 29.166C47.7846 29.356 47.1262 29.5509 46.4046 29.776V29.356C46.4046 28.1027 46.2409 27.0711 45.9423 26.2377V26.2409ZM51.0461 28.3893C51.0119 28.3893 50.9437 28.4243 50.913 28.4243C50.8822 28.4243 50.4199 28.5494 49.695 28.7744C48.9735 26.7193 47.6891 24.8243 45.417 24.8243H45.2209C44.5625 24.0143 43.7675 23.666 43.0785 23.666C37.7803 23.666 35.249 30.1278 34.4558 33.4094C32.4191 34.0178 30.9369 34.4693 30.7714 34.5327C29.6199 34.8877 29.5875 34.9193 29.4546 35.9827C29.3266 36.7527 26.333 59.421 26.333 59.421L49.4647 63.666L51.0461 28.3893Z" fill="#114038"></path><path d="M44.9998 84.2008C66.6494 84.2008 84.1998 66.6503 84.1998 45.0008C84.1998 23.3512 66.6494 5.80078 44.9998 5.80078C23.3502 5.80078 5.7998 23.3512 5.7998 45.0008C5.7998 66.6503 23.3502 84.2008 44.9998 84.2008Z" stroke="#114038" stroke-width="1.2"></path></g><defs><clipPath id="clip0_1565_79036"><rect width="80" height="80" fill="white" transform="translate(5 5)"></rect></clipPath></defs></svg>