<?xml version="1.0" encoding="UTF-8"?>

<svg xmlns="http://www.w3.org/2000/svg" width="90" height="90" viewBox="0 0 90 90" fill="none"><circle cx="45" cy="45" r="45" fill="#F7F4EE"></circle><g clip-path="url(#clip0_1565_79033)"><path d="M22.3311 44.9998C22.3311 53.9714 27.5452 61.7264 35.1075 65.4L24.294 35.7748C23.0367 38.5939 22.3311 41.7135 22.3311 44.9998ZM60.3013 43.8563C60.3013 41.0539 59.2947 39.1146 58.4324 37.605C57.2835 35.7368 56.2064 34.1568 56.2064 32.2884C56.2064 30.2048 57.7856 28.2655 60.0124 28.2655C60.1133 28.2655 60.2089 28.2776 60.306 28.2839C56.2737 24.5886 50.9 22.332 44.9988 22.332C37.0795 22.332 30.1127 26.3958 26.0592 32.5484C26.5919 32.5659 27.0933 32.5768 27.5183 32.5768C29.8887 32.5768 33.5601 32.2886 33.5601 32.2886C34.7816 32.2167 34.9252 34.0123 33.7047 34.1568C33.7047 34.1568 32.4761 34.3006 31.1109 34.3718L39.3651 58.9258L44.326 44.0483L40.7945 34.3715C39.5729 34.3004 38.4173 34.1567 38.4173 34.1567C37.1959 34.0842 37.3387 32.2166 38.5609 32.2884C38.5609 32.2884 42.3036 32.5767 44.5311 32.5767C46.9016 32.5767 50.5729 32.2884 50.5729 32.2884C51.7944 32.2166 51.9389 34.0122 50.7173 34.1567C50.7173 34.1567 49.4876 34.3004 48.1239 34.3715L56.3151 58.7383L58.5763 51.1846C59.7256 48.2386 60.3013 45.7963 60.3013 43.8563ZM45.3971 46.9826L38.5953 66.7455C40.6263 67.3426 42.7743 67.6688 44.9988 67.6688C47.6391 67.6688 50.1708 67.2132 52.5267 66.3839C52.4669 66.2867 52.4104 66.1838 52.3647 66.0714L45.3971 46.9826ZM64.8901 34.1254C64.9879 34.8468 65.0431 35.6212 65.0431 36.456C65.0431 38.7554 64.6117 41.3412 63.3184 44.5747L56.3952 64.5923C63.1349 60.6631 67.6664 53.3622 67.6664 44.9999C67.6664 41.0584 66.6588 37.3534 64.8901 34.1254Z" fill="#114038"></path><path d="M44.9998 84.2008C66.6494 84.2008 84.1998 66.6503 84.1998 45.0008C84.1998 23.3512 66.6494 5.80078 44.9998 5.80078C23.3502 5.80078 5.7998 23.3512 5.7998 45.0008C5.7998 66.6503 23.3502 84.2008 44.9998 84.2008Z" stroke="#114038" stroke-width="1.2"></path></g><defs><clipPath id="clip0_1565_79033"><rect width="80" height="80" fill="white" transform="translate(5 5)"></rect></clipPath></defs></svg>